ttp://www.imdb.com/title/tt0238414/

Disney's biggest stars shine in a magical all-new movie - sure to become a holiday classic! Mickey, Minnie, and their famous friends Goofy, Donald, Daisy and Pluto gather together to reminisce about the love, magic and surprises in three wonder-filled stories of Christmas past.

In the fine tradition of Disney's superb storytelling, Minnie and Mickey recall the year they both gave up what was most important to them for the sake of the other, making for one unforgettable Christmas. Goofy and Max retell when they experienced a series of hilarious but season-shaking events... until a visit from the real Santa made it a most magical holiday. Thinking back to when they wished Christmas was every day, Donald's newphews, Huey, Dewey and Louie, remember their dream turning into a comical catastrophe, eventually learning what true holiday spirit is all about.

Featuring the entire cast in a finale of merry magical Christmas songs, all the excitement of 'Mickey's Once Upon A Christmas' is ready to unwrap for holiday family fun!

Format : MPEG-4
Format profile : Base Media / Version 2
Codec ID : mp42
File size : 698 MiB
Duration : 1h 3mn
Overall bit rate : 1 546 Kbps
Encoded date : UTC 2009-10-22 10:32:41
Tagged date : UTC 2009-10-22 15:06:38
Writing application : HandBrake 0.9.3 2008112300

Video
ID : 1
Format : AVC
Format/Info : Advanced Video Codec
Format profile : Main@L4.0
Format settings, CABAC : Yes
Format settings, ReFrames : 3 frames
Codec ID : avc1
Codec ID/Info : Advanced Video Coding
Duration : 1h 3mn
Bit rate mode : Variable
Bit rate : 1 221 Kbps
Width : 702 pixels
Height : 576 pixels
Display aspect ratio : 16:9
Frame rate mode : Variable
Frame rate : 25.000 fps
Minimum frame rate : 16.667 fps
Maximum frame rate : 25.000 fps
Resolution : 24 bits
Colorimetry : 4:2:0
Scan type : Progressive
Bits/(Pixel*Frame) : 0.121
Stream size : 551 MiB (79%)
Writing library : x264 core 65


Audio #1
ID : 2
Format : AAC
Format/Info : Advanced Audio Codec
Format version : Version 4
Format profile : LC
Format settings, SBR : No
Codec ID : 40
Duration : 1h 3mn
Bit rate mode : Variable
Bit rate : 160 Kbps
Maximum bit rate : 195 Kbps
Channel(s) : 2 channels
Channel positions : L R
Sampling rate : 48.0 KHz
Resolution : 16 bits
Stream size : 72.2 MiB (10%)
Language : English
Encoded date : UTC 2009-10-22 10:32:41
Tagged date : UTC 2009-10-22 15:06:34

Audio #2
ID : 3
Format : AAC
Format/Info : Advanced Audio Codec
Format version : Version 4
Format profile : LC
Format settings, SBR : No
Codec ID : 40
Duration : 1h 3mn
Bit rate mode : Variable
Bit rate : 160 Kbps
Maximum bit rate : 195 Kbps
Channel(s) : 2 channels
Channel positions : L R
Sampling rate : 48.0 KHz
Resolution : 16 bits
Stream size : 72.1 MiB (10%)
Language : German
Encoded date : UTC 2009-10-22 10:32:41
Tagged date : UTC 2009-10-22 15:06:34 